<?xml version="1.0" encoding="utf-8"?>
<!-- Generator: Adobe Illustrator 27.0.0, SVG Export Plug-In . SVG Version: 6.00 Build 0)  -->
<svg version="1.1" id="Слой_1" xmlns="http://www.w3.org/2000/svg" xmlns:xlink="http://www.w3.org/1999/xlink" x="0px" y="0px"
	 viewBox="0 0 1080 1080" style="enable-background:new 0 0 1080 1080;" xml:space="preserve">
<style type="text/css">
	.st0{fill:#E3E2E1;}
	.st1{fill:#BEA59C;}
	.st2{fill:#779CA8;}
	.st3{fill:#2E5B6D;}
	
		.st4{clip-path:url(#XMLID_00000005965387246388691660000008837387322604738737_);fill:none;stroke:#2E5B6D;stroke-width:5;stroke-linecap:round;stroke-linejoin:round;stroke-miterlimit:10;}
	.st5{clip-path:url(#XMLID_00000005965387246388691660000008837387322604738737_);}
	.st6{fill:none;stroke:#2E5B6D;stroke-width:5;stroke-linecap:round;stroke-linejoin:round;stroke-miterlimit:10;}
	
		.st7{clip-path:url(#XMLID_00000034092106112277560890000012082062160276631690_);fill:none;stroke:#2E5B6D;stroke-width:5;stroke-linecap:round;stroke-linejoin:round;stroke-miterlimit:10;}
	.st8{clip-path:url(#XMLID_00000034092106112277560890000012082062160276631690_);}
	
		.st9{clip-path:url(#XMLID_00000094619844290532321950000014396997945084204716_);fill:none;stroke:#2E5B6D;stroke-width:5;stroke-linecap:round;stroke-linejoin:round;stroke-miterlimit:10;}
	.st10{clip-path:url(#XMLID_00000094619844290532321950000014396997945084204716_);}
	
		.st11{clip-path:url(#XMLID_00000112597247153322990660000011663932942891451837_);fill:none;stroke:#2E5B6D;stroke-width:5;stroke-linecap:round;stroke-linejoin:round;stroke-miterlimit:10;}
	.st12{clip-path:url(#XMLID_00000112597247153322990660000011663932942891451837_);}
	.st13{fill:#F4E1B0;}
	
		.st14{clip-path:url(#XMLID_00000112603547153205535920000010839207686169329591_);fill:none;stroke:#2E5B6D;stroke-width:7.3182;stroke-linecap:round;stroke-linejoin:round;stroke-miterlimit:10;}
	.st15{clip-path:url(#XMLID_00000112603547153205535920000010839207686169329591_);}
	.st16{fill:none;stroke:#2E5B6D;stroke-width:7.3182;stroke-linecap:round;stroke-linejoin:round;stroke-miterlimit:10;}
	
		.st17{clip-path:url(#XMLID_00000091734855210516938510000004130866461086333884_);fill:none;stroke:#2E5B6D;stroke-width:7.3182;stroke-linecap:round;stroke-linejoin:round;stroke-miterlimit:10;}
	.st18{clip-path:url(#XMLID_00000091734855210516938510000004130866461086333884_);}
	
		.st19{clip-path:url(#XMLID_00000139274613492845422230000009674236260381321860_);fill:none;stroke:#2E5B6D;stroke-width:7.3182;stroke-linecap:round;stroke-linejoin:round;stroke-miterlimit:10;}
	.st20{clip-path:url(#XMLID_00000139274613492845422230000009674236260381321860_);}
	
		.st21{clip-path:url(#XMLID_00000155829057418355825550000014438978951634652581_);fill:none;stroke:#2E5B6D;stroke-width:7.3182;stroke-linecap:round;stroke-linejoin:round;stroke-miterlimit:10;}
	.st22{clip-path:url(#XMLID_00000155829057418355825550000014438978951634652581_);}
	
		.st23{clip-path:url(#XMLID_00000092442024693768440260000018189892023684715703_);fill:none;stroke:#E3E2E1;stroke-width:7.3182;stroke-linecap:round;stroke-linejoin:round;stroke-miterlimit:10;}
	.st24{clip-path:url(#XMLID_00000092442024693768440260000018189892023684715703_);}
	.st25{fill:none;stroke:#E3E2E1;stroke-width:7.3182;stroke-linecap:round;stroke-linejoin:round;stroke-miterlimit:10;}
	
		.st26{clip-path:url(#XMLID_00000129914892795831000090000007177078528029067412_);fill:none;stroke:#E3E2E1;stroke-width:7.3182;stroke-linecap:round;stroke-linejoin:round;stroke-miterlimit:10;}
	.st27{clip-path:url(#XMLID_00000129914892795831000090000007177078528029067412_);}
	
		.st28{clip-path:url(#XMLID_00000122716266715347249800000008274201482916394895_);fill:none;stroke:#E3E2E1;stroke-width:7.3182;stroke-linecap:round;stroke-linejoin:round;stroke-miterlimit:10;}
	.st29{clip-path:url(#XMLID_00000122716266715347249800000008274201482916394895_);}
	
		.st30{clip-path:url(#XMLID_00000178927140558300650210000003059038344898016899_);fill:none;stroke:#E3E2E1;stroke-width:7.3182;stroke-linecap:round;stroke-linejoin:round;stroke-miterlimit:10;}
	.st31{clip-path:url(#XMLID_00000178927140558300650210000003059038344898016899_);}
	
		.st32{clip-path:url(#XMLID_00000127724970394771438030000004365554702867283085_);fill:none;stroke:#BEA59C;stroke-width:7.3182;stroke-linecap:round;stroke-linejoin:round;stroke-miterlimit:10;}
	.st33{clip-path:url(#XMLID_00000127724970394771438030000004365554702867283085_);}
	.st34{fill:none;stroke:#BEA59C;stroke-width:7.3182;stroke-linecap:round;stroke-linejoin:round;stroke-miterlimit:10;}
	
		.st35{clip-path:url(#XMLID_00000026860564440835331000000002033596106526039437_);fill:none;stroke:#BEA59C;stroke-width:7.3182;stroke-linecap:round;stroke-linejoin:round;stroke-miterlimit:10;}
	.st36{clip-path:url(#XMLID_00000026860564440835331000000002033596106526039437_);}
	
		.st37{clip-path:url(#XMLID_00000096033224271237720230000017082591714041617571_);fill:none;stroke:#2E5B6D;stroke-width:5;stroke-linecap:round;stroke-linejoin:round;stroke-miterlimit:10;}
	.st38{clip-path:url(#XMLID_00000096033224271237720230000017082591714041617571_);}
	
		.st39{clip-path:url(#XMLID_00000027586806903824605370000010683506084326512265_);fill:none;stroke:#F4E1B0;stroke-width:5;stroke-linecap:round;stroke-linejoin:round;stroke-miterlimit:10;}
	.st40{clip-path:url(#XMLID_00000027586806903824605370000010683506084326512265_);}
	.st41{fill:none;stroke:#F4E1B0;stroke-width:5;stroke-linecap:round;stroke-linejoin:round;stroke-miterlimit:10;}
	
		.st42{clip-path:url(#XMLID_00000003077405614041030970000010301760176691467688_);fill:none;stroke:#F4E1B0;stroke-width:5;stroke-linecap:round;stroke-linejoin:round;stroke-miterlimit:10;}
	.st43{clip-path:url(#XMLID_00000003077405614041030970000010301760176691467688_);}
	
		.st44{clip-path:url(#XMLID_00000117652983737531198750000010752973791746677137_);fill:none;stroke:#F4E1B0;stroke-width:5;stroke-linecap:round;stroke-linejoin:round;stroke-miterlimit:10;}
	.st45{clip-path:url(#XMLID_00000117652983737531198750000010752973791746677137_);}
	
		.st46{clip-path:url(#XMLID_00000083068329548133426650000007876320238049733553_);fill:none;stroke:#F4E1B0;stroke-width:5;stroke-linecap:round;stroke-linejoin:round;stroke-miterlimit:10;}
	.st47{clip-path:url(#XMLID_00000083068329548133426650000007876320238049733553_);}
	
		.st48{clip-path:url(#XMLID_00000016759955653880564920000002882661882617794744_);fill:none;stroke:#F4E1B0;stroke-width:5;stroke-linecap:round;stroke-linejoin:round;stroke-miterlimit:10;}
	.st49{clip-path:url(#XMLID_00000016759955653880564920000002882661882617794744_);}
	
		.st50{clip-path:url(#XMLID_00000049204282455493706650000010766632679048546472_);fill:none;stroke:#E3E2E1;stroke-width:5;stroke-linecap:round;stroke-linejoin:round;stroke-miterlimit:10;}
	.st51{clip-path:url(#XMLID_00000049204282455493706650000010766632679048546472_);}
	.st52{fill:none;stroke:#E3E2E1;stroke-width:5;stroke-linecap:round;stroke-linejoin:round;stroke-miterlimit:10;}
	
		.st53{clip-path:url(#XMLID_00000039814525266253142510000014430296542437190025_);fill:none;stroke:#E3E2E1;stroke-width:5;stroke-linecap:round;stroke-linejoin:round;stroke-miterlimit:10;}
	.st54{clip-path:url(#XMLID_00000039814525266253142510000014430296542437190025_);}
	
		.st55{clip-path:url(#XMLID_00000096767745673094618200000012016819554398651265_);fill:none;stroke:#E3E2E1;stroke-width:5;stroke-linecap:round;stroke-linejoin:round;stroke-miterlimit:10;}
	.st56{clip-path:url(#XMLID_00000096767745673094618200000012016819554398651265_);}
	
		.st57{clip-path:url(#XMLID_00000002357054046619206540000009051005226954753699_);fill:none;stroke:#E3E2E1;stroke-width:5;stroke-linecap:round;stroke-linejoin:round;stroke-miterlimit:10;}
	.st58{clip-path:url(#XMLID_00000002357054046619206540000009051005226954753699_);}
	
		.st59{clip-path:url(#XMLID_00000142171717260372049280000003444054903122508165_);fill:none;stroke:#BEA59C;stroke-width:5;stroke-linecap:round;stroke-linejoin:round;stroke-miterlimit:10;}
	.st60{clip-path:url(#XMLID_00000142171717260372049280000003444054903122508165_);}
	.st61{fill:none;stroke:#BEA59C;stroke-width:5;stroke-linecap:round;stroke-linejoin:round;stroke-miterlimit:10;}
	
		.st62{clip-path:url(#XMLID_00000007427138096112906780000003449366571980628386_);fill:none;stroke:#BEA59C;stroke-width:5;stroke-linecap:round;stroke-linejoin:round;stroke-miterlimit:10;}
	.st63{clip-path:url(#XMLID_00000007427138096112906780000003449366571980628386_);}
	
		.st64{clip-path:url(#XMLID_00000054251997124599960210000015948041884389611165_);fill:none;stroke:#F4E1B0;stroke-width:7.3182;stroke-linecap:round;stroke-linejoin:round;stroke-miterlimit:10;}
	.st65{clip-path:url(#XMLID_00000054251997124599960210000015948041884389611165_);}
	.st66{fill:none;stroke:#F4E1B0;stroke-width:7.3182;stroke-linecap:round;stroke-linejoin:round;stroke-miterlimit:10;}
	
		.st67{clip-path:url(#XMLID_00000145775734057039206650000001175018662234554284_);fill:none;stroke:#F4E1B0;stroke-width:7.3182;stroke-linecap:round;stroke-linejoin:round;stroke-miterlimit:10;}
	.st68{clip-path:url(#XMLID_00000145775734057039206650000001175018662234554284_);}
	
		.st69{clip-path:url(#XMLID_00000083773881529146893280000013632877450427109532_);fill:none;stroke:#F4E1B0;stroke-width:7.3182;stroke-linecap:round;stroke-linejoin:round;stroke-miterlimit:10;}
	.st70{clip-path:url(#XMLID_00000083773881529146893280000013632877450427109532_);}
	
		.st71{clip-path:url(#XMLID_00000066503907996111774750000009901512349471874485_);fill:none;stroke:#F4E1B0;stroke-width:7.3182;stroke-linecap:round;stroke-linejoin:round;stroke-miterlimit:10;}
	.st72{clip-path:url(#XMLID_00000066503907996111774750000009901512349471874485_);}
	
		.st73{clip-path:url(#XMLID_00000058583365418112184700000018372161780029415320_);fill:none;stroke:#F4E1B0;stroke-width:7.3182;stroke-linecap:round;stroke-linejoin:round;stroke-miterlimit:10;}
	.st74{clip-path:url(#XMLID_00000058583365418112184700000018372161780029415320_);}
</style>
<g>
	<g>
		<g>
			<path class="st13" d="M241.76,727.21c1.2,0,2.45-0.03,3.76-0.1c1.31-0.07,2.61-0.1,3.89-0.1c2.67,0,4.72,0.44,6.17,1.31
				c1.45,0.87,2.17,2.18,2.17,3.93c0,2.48-1.86,4.96-5.58,7.45l-0.9-0.41c0.69-0.64,1.22-1.39,1.59-2.24
				c0.37-0.85,0.55-1.92,0.55-3.21c0-2.07-0.49-3.56-1.48-4.48c-0.99-0.92-2.42-1.38-4.31-1.38c-1.56,0-2.62,0.29-3.17,0.86
				c-0.55,0.58-0.83,1.92-0.83,4.03v15.3c0,1.61,0.36,2.78,1.07,3.52c0.71,0.74,2.2,1.1,4.45,1.1c2.44,0,4.22-0.5,5.34-1.52
				c1.13-1.01,1.69-2.46,1.69-4.34c0-2.02-0.6-3.66-1.79-4.93c-1.2-1.26-3.19-1.9-6-1.9h-6.34l-0.07-1.1h8.82
				c6.57,0,9.86,2.11,9.86,6.34c0,2.48-0.97,4.53-2.9,6.14c-1.93,1.61-4.39,2.41-7.38,2.41c-1.1,0-2.49-0.05-4.17-0.14
				c-1.68-0.09-3.16-0.14-4.45-0.14c-1.15,0-2.27,0.02-3.38,0.07c-1.1,0.05-2.12,0.07-3.03,0.07c-0.14,0-0.21-0.14-0.21-0.41
				s0.07-0.41,0.21-0.41c1.88,0,3.09-0.3,3.62-0.9c0.53-0.6,0.79-1.88,0.79-3.86v-15.44c0-2.02-0.27-3.32-0.79-3.9
				c-0.53-0.57-1.71-0.86-3.55-0.86c-0.14,0-0.21-0.14-0.21-0.41s0.07-0.41,0.21-0.41c0.87,0,1.86,0.01,2.96,0.03
				C239.48,727.2,240.61,727.21,241.76,727.21z"/>
			<path class="st13" d="M264.44,772.71c-0.14,0-0.21-0.14-0.21-0.41c0-0.28,0.07-0.41,0.21-0.41c2.11,0,3.48-0.3,4.1-0.9
				c0.62-0.6,0.93-1.88,0.93-3.86v-34.4c0-1.93-0.39-3.21-1.17-3.83s-2.32-0.93-4.62-0.93c-0.14,0-0.21-0.14-0.21-0.41
				s0.07-0.41,0.21-0.41c1.15,0,2.24,0,3.28,0c1.03,0,1.97,0,2.83,0c0.85,0,1.6,0,2.24,0c0.51,0,0.85,0.12,1.03,0.34
				c0.18,0.23,0.28,0.71,0.28,1.45v38.19c0,1.29,0.17,2.27,0.52,2.96s1.01,1.16,2,1.41c0.99,0.25,2.45,0.38,4.38,0.38
				c0.14,0,0.21,0.14,0.21,0.41c0,0.28-0.07,0.41-0.21,0.41c-1.24,0-2.61-0.02-4.1-0.07c-1.49-0.05-3.07-0.07-4.72-0.07
				c-1.29,0-2.54,0.02-3.76,0.07C266.42,772.68,265.36,772.71,264.44,772.71z M280.64,754.65c-1.79,0-3.36-0.21-4.69-0.62
				c-1.33-0.41-2.8-1.19-4.41-2.34l1.03-3.79c1.19,1.52,2.56,2.78,4.1,3.79c1.54,1.01,3.55,1.52,6.03,1.52c2.39,0,4.39-1.06,6-3.17
				c1.61-2.11,2.41-5.1,2.41-8.96c0-4-0.9-7.03-2.69-9.1c-1.79-2.07-3.93-3.1-6.41-3.1c-2.07,0-3.86,0.56-5.38,1.69
				c-1.52,1.13-2.99,2.47-4.41,4.03l-0.62-0.55c2.34-2.71,4.58-4.69,6.72-5.93c2.14-1.24,4.33-1.86,6.58-1.86
				c1.88,0,3.62,0.49,5.2,1.48c1.59,0.99,2.87,2.42,3.86,4.31c0.99,1.88,1.48,4.18,1.48,6.89c0,2.8-0.48,5.19-1.45,7.17
				c-0.96,1.98-2.21,3.6-3.72,4.86c-1.52,1.26-3.13,2.2-4.83,2.79C283.76,754.35,282.15,754.65,280.64,754.65z"/>
			<path class="st13" d="M313.52,754.58c-2.85,0-5.24-0.63-7.17-1.9c-1.93-1.26-3.38-2.91-4.34-4.93c-0.97-2.02-1.45-4.16-1.45-6.41
				c0-2.8,0.66-5.32,1.96-7.55c1.31-2.23,3.08-4,5.31-5.31c2.23-1.31,4.75-1.96,7.55-1.96c2.53,0,4.47,0.61,5.83,1.83
				c1.36,1.22,2.03,2.88,2.03,5c0,0.51-0.05,0.9-0.14,1.17c-0.09,0.28-0.32,0.41-0.69,0.41h-4c0.18-2.25-0.22-3.99-1.21-5.21
				c-0.99-1.22-2.38-1.83-4.17-1.83c-2.57,0-4.54,0.96-5.89,2.9c-1.36,1.93-2.03,4.55-2.03,7.86c0,2.62,0.42,4.94,1.28,6.96
				c0.85,2.02,2.09,3.62,3.72,4.79c1.63,1.17,3.57,1.76,5.83,1.76c1.19,0,2.41-0.18,3.65-0.55c1.24-0.37,2.41-0.94,3.52-1.72
				c0.09-0.09,0.22-0.03,0.38,0.17c0.16,0.21,0.19,0.38,0.1,0.52c-1.65,1.42-3.31,2.45-4.96,3.07
				C316.97,754.27,315.27,754.58,313.52,754.58z M303.87,735.07l-0.07-0.9l15.72-0.34v1.1L303.87,735.07z"/>
			<path class="st13" d="M332.27,746.58l1.04-17.92l1.38,0.21l-1.04,17.72c-0.14,2.3,0.15,3.93,0.86,4.89
				c0.71,0.96,1.87,1.45,3.48,1.45c0.09,0,0.14,0.14,0.14,0.41s-0.05,0.41-0.14,0.41c-0.74,0-1.53-0.02-2.38-0.07
				c-0.85-0.05-1.76-0.07-2.72-0.07c-0.92,0-1.83,0.02-2.72,0.07c-0.9,0.05-1.74,0.07-2.52,0.07c-0.09,0-0.14-0.14-0.14-0.41
				s0.04-0.41,0.14-0.41c1.65,0,2.8-0.48,3.45-1.45C331.74,750.51,332.13,748.88,332.27,746.58z M363.84,752.92
				c0.09,0,0.14,0.14,0.14,0.41s-0.05,0.41-0.14,0.41c-0.92,0-1.93-0.02-3.03-0.07c-1.1-0.05-2.21-0.07-3.31-0.07
				c-1.1,0-2.1,0.02-3,0.07c-0.9,0.05-1.73,0.07-2.52,0.07c-0.14,0-0.21-0.14-0.21-0.41s0.07-0.41,0.21-0.41c1.52,0,2.52-0.3,3-0.9
				c0.48-0.6,0.66-1.88,0.52-3.86l-1.24-19.44l1.1-0.76l-9.93,23.51c-0.09,0.18-0.28,0.28-0.55,0.28s-0.46-0.09-0.55-0.28
				l-9.51-18.61c-1.01-2.07-2.06-3.4-3.14-4c-1.08-0.6-2.1-0.9-3.07-0.9c-0.09,0-0.14-0.14-0.14-0.41s0.04-0.41,0.14-0.41
				c0.64,0,1.29,0.01,1.93,0.03c0.64,0.02,1.17,0.03,1.59,0.03c0.64,0,1.24-0.01,1.79-0.03c0.55-0.02,0.96-0.03,1.24-0.03
				c0.69,0,1.19,0.23,1.52,0.69c0.32,0.46,0.85,1.4,1.59,2.83l8.48,16.54l-1.86,2.34l8.69-20.68c0.23-0.55,0.54-0.98,0.93-1.28
				c0.39-0.3,0.77-0.45,1.14-0.45c0.32,0,0.78,0.01,1.38,0.03c0.6,0.02,1.26,0.03,2,0.03c0.87,0,1.57-0.01,2.1-0.03
				c0.53-0.02,1.09-0.03,1.69-0.03c0.09,0,0.14,0.14,0.14,0.41s-0.05,0.41-0.14,0.41c-1.56,0-2.77,0.28-3.62,0.83
				c-0.85,0.55-1.18,1.79-1,3.72l1.17,15.65c0.14,1.33,0.31,2.34,0.52,3.03c0.21,0.69,0.61,1.15,1.21,1.38
				C361.68,752.81,362.6,752.92,363.84,752.92z"/>
			<path class="st13" d="M392.04,752.92c0.09,0,0.14,0.14,0.14,0.41s-0.05,0.41-0.14,0.41c-0.78,0-1.69-0.02-2.72-0.07
				c-1.03-0.05-2.13-0.07-3.27-0.07c-1.24,0-2.38,0.02-3.41,0.07c-1.04,0.05-2.01,0.07-2.93,0.07c-0.09,0-0.14-0.14-0.14-0.41
				s0.04-0.41,0.14-0.41c1.84,0,3-0.3,3.48-0.9c0.48-0.6,0.72-1.88,0.72-3.86v-7.72l1.1,0.14c-1.29,0-2.45,0.2-3.48,0.59
				c-1.03,0.39-2.06,1.13-3.07,2.21c-1.01,1.08-2.09,2.68-3.24,4.79c-0.83,1.56-1.47,2.75-1.93,3.55c-0.46,0.8-0.83,1.34-1.1,1.62
				c-0.28,0.28-0.6,0.41-0.97,0.41h-6c-0.09,0-0.14-0.14-0.14-0.41s0.05-0.41,0.14-0.41c1.19,0,2.18-0.33,2.96-1
				c0.78-0.67,1.44-1.47,1.96-2.41c0.53-0.94,1.04-1.85,1.55-2.72c1.01-1.84,2.3-3.34,3.86-4.52c1.56-1.17,3.35-1.76,5.38-1.76
				l0.48,0.28c-2.71,0-4.85-0.29-6.41-0.86c-1.56-0.57-2.67-1.37-3.31-2.38c-0.64-1.01-0.96-2.16-0.96-3.45
				c0-2.21,0.82-3.95,2.45-5.24c1.63-1.29,3.8-1.93,6.52-1.93c0.78,0,1.81,0.06,3.1,0.17c1.29,0.12,2.37,0.17,3.24,0.17
				c1.15,0,2.22-0.02,3.21-0.07c0.99-0.05,1.9-0.07,2.72-0.07c0.09,0,0.14,0.14,0.14,0.41s-0.05,0.41-0.14,0.41
				c-1.7,0-2.83,0.29-3.38,0.86c-0.55,0.58-0.83,1.87-0.83,3.9v15.44c0,1.98,0.29,3.26,0.86,3.86
				C389.2,752.63,390.34,752.92,392.04,752.92z M374.87,732.52c0,2.11,0.53,3.86,1.59,5.24c1.06,1.38,2.64,2.07,4.76,2.07
				c0.64,0,1.36-0.05,2.14-0.14c0.78-0.09,1.4-0.18,1.86-0.28l-1.31,0.55v-7.1c0-2.11-0.28-3.49-0.83-4.14
				c-0.55-0.64-1.7-0.97-3.45-0.97C376.46,727.76,374.87,729.35,374.87,732.52z"/>
			<path class="st13" d="M443.81,752.92c0.09,0,0.14,0.14,0.14,0.41s-0.05,0.41-0.14,0.41c-0.92,0-1.92-0.02-3-0.07
				c-1.08-0.05-2.17-0.07-3.27-0.07c-1.15,0-2.28,0.02-3.38,0.07c-1.1,0.05-2.07,0.07-2.89,0.07c-0.14,0-0.21-0.14-0.21-0.41
				s0.07-0.41,0.21-0.41c1.79,0,2.95-0.3,3.48-0.9c0.53-0.6,0.79-1.88,0.79-3.86v-15.44c0-1.42-0.05-2.42-0.14-3
				c-0.09-0.57-0.37-0.93-0.83-1.07c-0.46-0.14-1.24-0.21-2.34-0.21h-8c-1.1,0-1.88,0.07-2.34,0.21c-0.46,0.14-0.75,0.51-0.86,1.1
				c-0.12,0.6-0.17,1.63-0.17,3.1v15.3c0,1.98,0.24,3.26,0.72,3.86c0.48,0.6,1.64,0.9,3.48,0.9c0.09,0,0.14,0.14,0.14,0.41
				s-0.05,0.41-0.14,0.41c-0.87,0-1.84-0.02-2.89-0.07c-1.06-0.05-2.12-0.07-3.17-0.07c-1.2,0-2.34,0.02-3.45,0.07
				c-1.1,0.05-2.09,0.07-2.96,0.07c-0.14,0-0.21-0.14-0.21-0.41s0.07-0.41,0.21-0.41c1.88,0,3.09-0.3,3.62-0.9
				c0.53-0.6,0.79-1.88,0.79-3.86v-15.44c0-2.02-0.26-3.32-0.79-3.9c-0.53-0.57-1.71-0.86-3.55-0.86c-0.14,0-0.21-0.14-0.21-0.41
				s0.07-0.41,0.21-0.41h31.16c0.09,0,0.14,0.14,0.14,0.41s-0.05,0.41-0.14,0.41c-1.93,0-3.15,0.32-3.65,0.97
				c-0.51,0.64-0.76,1.95-0.76,3.93v15.3c0,1.98,0.25,3.26,0.76,3.86C440.66,752.63,441.88,752.92,443.81,752.92z"/>
			<path class="st13" d="M475.66,727.14c0.14,0,0.21,0.14,0.21,0.41s-0.07,0.41-0.21,0.41c-1.15,0-2.14,0.39-2.96,1.17
				c-0.83,0.78-1.61,2.16-2.34,4.14l-8.41,22.4c-1.65,4.41-3.24,7.89-4.76,10.44c-1.52,2.55-3.09,4.35-4.72,5.41
				c-1.63,1.06-3.44,1.59-5.41,1.59c-0.96,0-1.79-0.22-2.48-0.65c-0.69-0.44-1.03-1.12-1.03-2.03c0-0.69,0.22-1.21,0.66-1.55
				s0.93-0.52,1.48-0.52c0.92,0,1.61,0.14,2.07,0.41c0.46,0.28,0.92,0.55,1.38,0.83c0.46,0.28,1.06,0.41,1.79,0.41
				c1.1,0,2.17-0.52,3.21-1.55c1.03-1.03,2.15-2.79,3.34-5.27c1.19-2.48,2.6-5.86,4.21-10.13l-0.07,1.93l-10.89-22.13
				c-1.01-2.02-1.8-3.34-2.38-3.96s-1.3-0.93-2.17-0.93c-0.09,0-0.14-0.14-0.14-0.41s0.04-0.41,0.14-0.41c0.73,0,1.5,0.02,2.31,0.07
				c0.8,0.05,1.57,0.07,2.31,0.07c1.52,0,2.85-0.02,4-0.07c1.15-0.05,2.18-0.07,3.1-0.07c0.09,0,0.14,0.14,0.14,0.41
				s-0.05,0.41-0.14,0.41c-1.47,0-2.59,0.18-3.34,0.55c-0.76,0.37-0.86,1.08-0.31,2.14l9.44,19.44l-1.58,2.83l6.76-19.44
				c0.69-2.07,0.68-3.5-0.04-4.31c-0.71-0.8-2.29-1.21-4.72-1.21c-0.09,0-0.14-0.14-0.14-0.41s0.04-0.41,0.14-0.41
				c1.1,0,2.15,0.02,3.14,0.07c0.99,0.05,2.26,0.07,3.83,0.07c1.01,0,1.83-0.02,2.45-0.07
				C474.11,727.16,474.83,727.14,475.66,727.14z"/>
			<path class="st13" d="M484.14,753.75c-0.09,0-0.14-0.14-0.14-0.41s0.04-0.41,0.14-0.41c1.88,0,3.1-0.3,3.65-0.9
				c0.55-0.6,0.83-1.88,0.83-3.86v-15.3c0-1.88-0.21-3.14-0.62-3.76c-0.41-0.62-1.36-0.93-2.83-0.93c-1.75,0-3.15,0.54-4.21,1.62
				c-1.06,1.08-1.68,3.21-1.86,6.38c0,0.09-0.14,0.14-0.41,0.14s-0.41-0.04-0.41-0.14c0-0.64,0-1.62,0-2.93
				c0-1.31-0.01-2.65-0.03-4.03c-0.02-1.38-0.04-2.5-0.04-3.38c0-0.23,0.14-0.34,0.41-0.34c0.28,0,0.41,0.12,0.41,0.34
				c0,0.64,1.06,1.03,3.17,1.17c2.11,0.14,4.89,0.21,8.34,0.21c2.25,0,4.24-0.02,5.96-0.07c1.72-0.05,3.07-0.17,4.03-0.38
				c0.96-0.21,1.45-0.52,1.45-0.93c0-0.23,0.14-0.34,0.41-0.34s0.41,0.12,0.41,0.34c0,0.87,0,2,0,3.38c0,1.38-0.01,2.72-0.04,4.03
				c-0.02,1.31-0.03,2.29-0.03,2.93c0,0.09-0.14,0.14-0.41,0.14c-0.28,0-0.41-0.04-0.41-0.14c-0.18-3.17-0.84-5.3-1.96-6.38
				c-1.13-1.08-2.54-1.62-4.24-1.62c-1.42,0-2.32,0.31-2.69,0.93c-0.37,0.62-0.55,1.87-0.55,3.76v15.3c0,1.98,0.25,3.26,0.76,3.86
				c0.5,0.6,1.7,0.9,3.58,0.9c0.14,0,0.21,0.14,0.21,0.41s-0.07,0.41-0.21,0.41c-0.87,0-1.85-0.02-2.93-0.07
				c-1.08-0.05-2.2-0.07-3.34-0.07c-1.1,0-2.22,0.02-3.34,0.07C486.08,753.73,485.06,753.75,484.14,753.75z"/>
			<path class="st13" d="M520.54,754.58c-2.85,0-5.24-0.63-7.17-1.9c-1.93-1.26-3.38-2.91-4.34-4.93c-0.96-2.02-1.45-4.16-1.45-6.41
				c0-2.8,0.65-5.32,1.96-7.55c1.31-2.23,3.08-4,5.31-5.31c2.23-1.31,4.75-1.96,7.55-1.96c2.53,0,4.47,0.61,5.83,1.83
				c1.36,1.22,2.03,2.88,2.03,5c0,0.51-0.05,0.9-0.14,1.17c-0.09,0.28-0.32,0.41-0.69,0.41h-4c0.18-2.25-0.22-3.99-1.21-5.21
				c-0.99-1.22-2.38-1.83-4.17-1.83c-2.57,0-4.54,0.96-5.89,2.9c-1.36,1.93-2.03,4.55-2.03,7.86c0,2.62,0.42,4.94,1.28,6.96
				c0.85,2.02,2.09,3.62,3.72,4.79c1.63,1.17,3.57,1.76,5.83,1.76c1.19,0,2.41-0.18,3.65-0.55c1.24-0.37,2.41-0.94,3.52-1.72
				c0.09-0.09,0.22-0.03,0.38,0.17c0.16,0.21,0.19,0.38,0.1,0.52c-1.65,1.42-3.31,2.45-4.96,3.07
				C523.98,754.27,522.28,754.58,520.54,754.58z M510.89,735.07l-0.07-0.9l15.72-0.34v1.1L510.89,735.07z"/>
			<path class="st13" d="M535.43,753.75c-0.14,0-0.21-0.14-0.21-0.41s0.07-0.41,0.21-0.41c1.88,0,3.08-0.32,3.58-0.97
				c0.5-0.64,0.76-1.95,0.76-3.93v-15.3c0-2.02-0.25-3.32-0.76-3.9c-0.51-0.57-1.7-0.86-3.58-0.86c-0.14,0-0.21-0.14-0.21-0.41
				s0.07-0.41,0.21-0.41c0.87,0,1.85,0.02,2.93,0.07c1.08,0.05,2.15,0.07,3.21,0.07s2.11-0.02,3.17-0.07c1.06-0.05,2-0.07,2.83-0.07
				c0.14,0,0.21,0.14,0.21,0.41s-0.07,0.41-0.21,0.41c-1.65,0-2.72,0.29-3.21,0.86c-0.48,0.58-0.72,1.87-0.72,3.9v15.44
				c0,1.38,0.05,2.36,0.14,2.93c0.09,0.58,0.36,0.93,0.79,1.07c0.44,0.14,1.21,0.21,2.31,0.21h6.48c1.06,0,1.83-0.07,2.31-0.21
				c0.48-0.14,0.78-0.49,0.9-1.07c0.12-0.57,0.17-1.5,0.17-2.79v-15.58c0-2.02-0.24-3.32-0.72-3.9c-0.48-0.57-1.6-0.86-3.34-0.86
				c-0.09,0-0.14-0.14-0.14-0.41s0.04-0.41,0.14-0.41c0.83,0,1.76,0.02,2.79,0.07c1.03,0.05,2.08,0.07,3.14,0.07
				c1.06,0,2.1-0.02,3.14-0.07c1.03-0.05,1.96-0.07,2.79-0.07c0.14,0,0.21,0.14,0.21,0.41s-0.07,0.41-0.21,0.41
				c-1.65,0-2.72,0.29-3.21,0.86c-0.48,0.58-0.72,1.87-0.72,3.9v15.44c0,1.38,0.04,2.36,0.14,2.93c0.09,0.58,0.37,0.93,0.83,1.07
				c0.46,0.14,1.24,0.21,2.34,0.21h6.41c1.15,0,1.95-0.07,2.41-0.21c0.46-0.14,0.73-0.52,0.83-1.14c0.09-0.62,0.14-1.62,0.14-3
				v-15.3c0-2.02-0.23-3.32-0.69-3.9c-0.46-0.57-1.52-0.86-3.17-0.86c-0.14,0-0.21-0.14-0.21-0.41s0.07-0.41,0.21-0.41
				c0.78,0,1.68,0.02,2.69,0.07c1.01,0.05,2.02,0.07,3.03,0.07c1.15,0,2.29-0.02,3.41-0.07c1.13-0.05,2.15-0.07,3.07-0.07
				c0.09,0,0.14,0.14,0.14,0.41s-0.05,0.41-0.14,0.41c-1.93,0-3.16,0.29-3.69,0.86c-0.53,0.58-0.79,1.87-0.79,3.9v15.3
				c0,1.98,0.25,3.29,0.76,3.93c0.51,0.64,1.72,0.97,3.65,0.97c0.09,0,0.14,0.14,0.14,0.41s-0.05,0.41-0.14,0.41H535.43z"/>
			<path class="st13" d="M599.61,754.58c-2.85,0-5.24-0.63-7.17-1.9c-1.93-1.26-3.38-2.91-4.34-4.93c-0.96-2.02-1.45-4.16-1.45-6.41
				c0-2.8,0.65-5.32,1.96-7.55c1.31-2.23,3.08-4,5.31-5.31c2.23-1.31,4.74-1.96,7.55-1.96c2.53,0,4.47,0.61,5.83,1.83
				c1.36,1.22,2.03,2.88,2.03,5c0,0.51-0.04,0.9-0.14,1.17c-0.09,0.28-0.32,0.41-0.69,0.41h-4c0.18-2.25-0.22-3.99-1.21-5.21
				c-0.99-1.22-2.38-1.83-4.17-1.83c-2.57,0-4.54,0.96-5.89,2.9c-1.36,1.93-2.03,4.55-2.03,7.86c0,2.62,0.42,4.94,1.28,6.96
				c0.85,2.02,2.09,3.62,3.72,4.79c1.63,1.17,3.57,1.76,5.83,1.76c1.19,0,2.41-0.18,3.65-0.55c1.24-0.37,2.41-0.94,3.52-1.72
				c0.09-0.09,0.22-0.03,0.38,0.17c0.16,0.21,0.2,0.38,0.1,0.52c-1.65,1.42-3.31,2.45-4.96,3.07
				C603.05,754.27,601.35,754.58,599.61,754.58z M589.96,735.07l-0.07-0.9l15.72-0.34v1.1L589.96,735.07z"/>
			<path class="st13" d="M628.22,754.58c-3.12,0-5.68-0.68-7.65-2.03s-3.44-3.08-4.38-5.17c-0.94-2.09-1.41-4.22-1.41-6.38
				c0-2.3,0.45-4.34,1.34-6.14c0.9-1.79,2.08-3.31,3.55-4.55c1.47-1.24,3.1-2.18,4.89-2.83c1.79-0.64,3.54-0.97,5.24-0.97
				c1.33,0,2.61,0.17,3.83,0.52c1.22,0.34,2.23,0.84,3.03,1.48c0.8,0.64,1.21,1.38,1.21,2.21c0,0.6-0.21,1.12-0.62,1.55
				c-0.41,0.44-1.01,0.65-1.79,0.65c-0.74,0-1.34-0.23-1.83-0.69c-0.48-0.46-0.89-0.99-1.21-1.59c-0.51-0.83-1.1-1.49-1.79-2
				c-0.69-0.51-1.72-0.76-3.1-0.76c-2.62,0-4.64,1.02-6.07,3.07c-1.42,2.05-2.14,4.7-2.14,7.96c0,2.34,0.4,4.53,1.21,6.55
				c0.8,2.02,2.06,3.64,3.76,4.86c1.7,1.22,3.91,1.83,6.62,1.83c1.24,0,2.46-0.16,3.65-0.48c1.19-0.32,2.32-0.92,3.38-1.79
				c0.09-0.09,0.22-0.05,0.38,0.14c0.16,0.18,0.2,0.32,0.1,0.41c-1.61,1.43-3.22,2.47-4.83,3.14S630.19,754.58,628.22,754.58z"/>
			<path class="st13" d="M648.83,753.75c-0.09,0-0.14-0.14-0.14-0.41s0.04-0.41,0.14-0.41c1.88,0,3.1-0.3,3.65-0.9
				c0.55-0.6,0.83-1.88,0.83-3.86v-15.3c0-1.88-0.21-3.14-0.62-3.76c-0.41-0.62-1.36-0.93-2.83-0.93c-1.75,0-3.15,0.54-4.21,1.62
				c-1.06,1.08-1.68,3.21-1.86,6.38c0,0.09-0.14,0.14-0.41,0.14s-0.41-0.04-0.41-0.14c0-0.64,0-1.62,0-2.93
				c0-1.31-0.01-2.65-0.03-4.03c-0.02-1.38-0.04-2.5-0.04-3.38c0-0.23,0.14-0.34,0.41-0.34c0.28,0,0.41,0.12,0.41,0.34
				c0,0.64,1.06,1.03,3.17,1.17c2.11,0.14,4.89,0.21,8.34,0.21c2.25,0,4.24-0.02,5.96-0.07c1.72-0.05,3.07-0.17,4.03-0.38
				c0.96-0.21,1.45-0.52,1.45-0.93c0-0.23,0.14-0.34,0.41-0.34s0.41,0.12,0.41,0.34c0,0.87,0,2,0,3.38c0,1.38-0.01,2.72-0.04,4.03
				c-0.02,1.31-0.03,2.29-0.03,2.93c0,0.09-0.14,0.14-0.41,0.14c-0.28,0-0.41-0.04-0.41-0.14c-0.18-3.17-0.84-5.3-1.96-6.38
				c-1.13-1.08-2.54-1.62-4.24-1.62c-1.42,0-2.32,0.31-2.69,0.93c-0.37,0.62-0.55,1.87-0.55,3.76v15.3c0,1.98,0.25,3.26,0.76,3.86
				c0.5,0.6,1.7,0.9,3.58,0.9c0.14,0,0.21,0.14,0.21,0.41s-0.07,0.41-0.21,0.41c-0.87,0-1.85-0.02-2.93-0.07
				c-1.08-0.05-2.2-0.07-3.34-0.07c-1.1,0-2.22,0.02-3.34,0.07C650.77,753.73,649.75,753.75,648.83,753.75z"/>
			<path class="st13" d="M678.4,727.21c1.2,0,2.45-0.03,3.76-0.1c1.31-0.07,2.61-0.1,3.89-0.1c2.67,0,4.72,0.44,6.17,1.31
				c1.45,0.87,2.17,2.18,2.17,3.93c0,2.48-1.86,4.96-5.58,7.45l-0.9-0.41c0.69-0.64,1.22-1.39,1.59-2.24
				c0.37-0.85,0.55-1.92,0.55-3.21c0-2.07-0.49-3.56-1.48-4.48c-0.99-0.92-2.42-1.38-4.31-1.38c-1.56,0-2.62,0.29-3.17,0.86
				c-0.55,0.58-0.83,1.92-0.83,4.03v15.3c0,1.61,0.36,2.78,1.07,3.52c0.71,0.74,2.2,1.1,4.45,1.1c2.44,0,4.22-0.5,5.34-1.52
				c1.13-1.01,1.69-2.46,1.69-4.34c0-2.02-0.6-3.66-1.79-4.93c-1.2-1.26-3.19-1.9-6-1.9h-6.34l-0.07-1.1h8.82
				c6.57,0,9.86,2.11,9.86,6.34c0,2.48-0.97,4.53-2.9,6.14c-1.93,1.61-4.39,2.41-7.38,2.41c-1.1,0-2.49-0.05-4.17-0.14
				c-1.68-0.09-3.16-0.14-4.45-0.14c-1.15,0-2.27,0.02-3.38,0.07c-1.1,0.05-2.12,0.07-3.03,0.07c-0.14,0-0.21-0.14-0.21-0.41
				s0.07-0.41,0.21-0.41c1.88,0,3.09-0.3,3.62-0.9c0.53-0.6,0.79-1.88,0.79-3.86v-15.44c0-2.02-0.27-3.32-0.79-3.9
				c-0.53-0.57-1.71-0.86-3.55-0.86c-0.14,0-0.21-0.14-0.21-0.41s0.07-0.41,0.21-0.41c0.87,0,1.86,0.01,2.96,0.03
				C676.13,727.2,677.25,727.21,678.4,727.21z"/>
			<path class="st13" d="M715.83,754.65c-2.71,0-5.08-0.67-7.1-2c-2.02-1.33-3.58-3.11-4.69-5.34c-1.1-2.23-1.65-4.63-1.65-7.2
				c0-2.39,0.44-4.46,1.31-6.2c0.87-1.75,2.04-3.18,3.52-4.31c1.47-1.13,3.07-1.96,4.79-2.52c1.72-0.55,3.41-0.83,5.07-0.83
				c2.8,0,5.21,0.69,7.21,2.07c2,1.38,3.53,3.15,4.58,5.31c1.06,2.16,1.59,4.44,1.59,6.82c0,2.94-0.67,5.47-2,7.58
				c-1.33,2.11-3.1,3.75-5.31,4.89C720.94,754.07,718.5,754.65,715.83,754.65z M717.83,753.34c2.44,0,4.37-0.86,5.79-2.59
				c1.42-1.72,2.14-4.52,2.14-8.38c0-2.9-0.47-5.46-1.41-7.69c-0.94-2.23-2.24-3.97-3.89-5.24c-1.65-1.26-3.54-1.9-5.65-1.9
				c-2.44,0-4.34,0.9-5.72,2.69s-2.07,4.37-2.07,7.72c0,2.8,0.46,5.38,1.38,7.72c0.92,2.34,2.19,4.21,3.83,5.58
				C713.85,752.65,715.72,753.34,717.83,753.34z"/>
			<path class="st13" d="M741.55,727.21c1.2,0,2.45-0.03,3.76-0.1c1.31-0.07,2.61-0.1,3.89-0.1c2.66,0,4.72,0.44,6.17,1.31
				c1.45,0.87,2.17,2.18,2.17,3.93c0,2.48-1.86,4.96-5.58,7.45l-0.9-0.41c0.69-0.64,1.22-1.39,1.59-2.24
				c0.37-0.85,0.55-1.92,0.55-3.21c0-2.07-0.49-3.56-1.48-4.48c-0.99-0.92-2.42-1.38-4.31-1.38c-1.56,0-2.62,0.29-3.17,0.86
				c-0.55,0.58-0.83,1.92-0.83,4.03v15.3c0,1.61,0.36,2.78,1.07,3.52c0.71,0.74,2.19,1.1,4.45,1.1c2.44,0,4.21-0.5,5.34-1.52
				c1.13-1.01,1.69-2.46,1.69-4.34c0-2.02-0.6-3.66-1.79-4.93c-1.2-1.26-3.19-1.9-6-1.9h-6.34l-0.07-1.1h8.82
				c6.57,0,9.86,2.11,9.86,6.34c0,2.48-0.96,4.53-2.89,6.14c-1.93,1.61-4.39,2.41-7.38,2.41c-1.1,0-2.49-0.05-4.17-0.14
				c-1.68-0.09-3.16-0.14-4.45-0.14c-1.15,0-2.28,0.02-3.38,0.07c-1.1,0.05-2.11,0.07-3.03,0.07c-0.14,0-0.21-0.14-0.21-0.41
				s0.07-0.41,0.21-0.41c1.88,0,3.09-0.3,3.62-0.9c0.53-0.6,0.79-1.88,0.79-3.86v-15.44c0-2.02-0.26-3.32-0.79-3.9
				c-0.53-0.57-1.71-0.86-3.55-0.86c-0.14,0-0.21-0.14-0.21-0.41s0.07-0.41,0.21-0.41c0.87,0,1.86,0.01,2.96,0.03
				C739.27,727.2,740.4,727.21,741.55,727.21z"/>
			<path class="st13" d="M771.19,754.23c-1.47,0-2.57-0.4-3.31-1.21c-0.74-0.8-1.1-1.73-1.1-2.79c0-1.29,0.51-2.31,1.52-3.07
				c1.01-0.76,2.66-1.53,4.96-2.31l9.03-3.24l0.21,0.76l-8,3.03c-1.06,0.41-1.8,0.87-2.24,1.38c-0.44,0.51-0.65,1.15-0.65,1.93
				c0,0.96,0.28,1.71,0.83,2.24c0.55,0.53,1.26,0.79,2.14,0.79c0.5,0,0.99-0.06,1.45-0.17c0.46-0.11,0.92-0.29,1.38-0.52l5.86-2.96
				l0.14,0.83l-6,3.24c-1.38,0.69-2.53,1.21-3.45,1.55C773.03,754.06,772.11,754.23,771.19,754.23z M784.7,754.16
				c-0.18,0.09-0.37,0.14-0.55,0.14c-0.6,0-1.17-0.49-1.72-1.48s-0.83-2.42-0.83-4.31v-12.34c0-2.16-0.2-3.84-0.59-5.03
				c-0.39-1.19-0.92-2.02-1.59-2.48c-0.67-0.46-1.41-0.69-2.24-0.69c-1.15,0-2.09,0.29-2.83,0.86c-0.74,0.58-1.29,1.3-1.65,2.17
				c-0.37,0.87-0.62,1.75-0.76,2.62c-0.05,0.64-0.24,1.24-0.59,1.79c-0.34,0.55-1,0.83-1.96,0.83c-0.74,0-1.31-0.18-1.72-0.55
				c-0.41-0.37-0.62-0.87-0.62-1.52c0-0.83,0.41-1.69,1.24-2.59c0.83-0.9,1.87-1.72,3.14-2.48c1.26-0.76,2.6-1.38,4-1.86
				c1.4-0.48,2.72-0.72,3.96-0.72c1.75,0,3.19,0.61,4.34,1.83c1.15,1.22,1.72,3.14,1.72,5.76v12.2c0,1.61,0.21,2.78,0.62,3.52
				c0.41,0.74,1.08,1.1,2,1.1c0.83,0,1.97-0.3,3.45-0.9c0.23-0.09,0.39-0.01,0.48,0.24c0.09,0.25,0.02,0.43-0.21,0.52L784.7,754.16z
				"/>
			<path class="st13" d="M800.14,753.75c-0.09,0-0.14-0.14-0.14-0.41s0.04-0.41,0.14-0.41c1.88,0,3.1-0.3,3.65-0.9
				c0.55-0.6,0.83-1.88,0.83-3.86v-15.3c0-1.88-0.21-3.14-0.62-3.76c-0.41-0.62-1.36-0.93-2.83-0.93c-1.75,0-3.15,0.54-4.21,1.62
				c-1.06,1.08-1.68,3.21-1.86,6.38c0,0.09-0.14,0.14-0.41,0.14s-0.41-0.04-0.41-0.14c0-0.64,0-1.62,0-2.93
				c0-1.31-0.01-2.65-0.03-4.03c-0.02-1.38-0.03-2.5-0.03-3.38c0-0.23,0.14-0.34,0.41-0.34s0.41,0.12,0.41,0.34
				c0,0.64,1.06,1.03,3.17,1.17c2.11,0.14,4.89,0.21,8.34,0.21c2.25,0,4.24-0.02,5.96-0.07c1.72-0.05,3.07-0.17,4.03-0.38
				c0.96-0.21,1.45-0.52,1.45-0.93c0-0.23,0.14-0.34,0.41-0.34c0.28,0,0.41,0.12,0.41,0.34c0,0.87,0,2,0,3.38
				c0,1.38-0.01,2.72-0.03,4.03c-0.02,1.31-0.04,2.29-0.04,2.93c0,0.09-0.14,0.14-0.41,0.14c-0.28,0-0.41-0.04-0.41-0.14
				c-0.19-3.17-0.84-5.3-1.96-6.38c-1.13-1.08-2.54-1.62-4.24-1.62c-1.43,0-2.32,0.31-2.69,0.93c-0.37,0.62-0.55,1.87-0.55,3.76
				v15.3c0,1.98,0.25,3.26,0.76,3.86c0.51,0.6,1.7,0.9,3.59,0.9c0.14,0,0.21,0.14,0.21,0.41s-0.07,0.41-0.21,0.41
				c-0.87,0-1.85-0.02-2.93-0.07c-1.08-0.05-2.2-0.07-3.34-0.07c-1.1,0-2.22,0.02-3.34,0.07
				C802.08,753.73,801.06,753.75,800.14,753.75z"/>
			<path class="st13" d="M831.58,732.86v15.3c0,1.65,0.36,2.85,1.07,3.58c0.71,0.74,2.17,1.1,4.38,1.1c2.21,0,3.83-0.52,4.86-1.55
				s1.55-2.52,1.55-4.45c0-2.21-0.55-4.01-1.66-5.41c-1.1-1.4-2.94-2.1-5.51-2.1c-1.01,0-1.99,0.09-2.93,0.28
				c-0.94,0.18-1.94,0.53-3,1.03l-0.41-0.9c1.47-0.64,2.95-1.08,4.45-1.31c1.49-0.23,2.93-0.34,4.31-0.34c6.07,0,9.1,2.39,9.1,7.17
				c0,2.53-0.9,4.6-2.69,6.2c-1.79,1.61-4.04,2.41-6.76,2.41c-0.74,0-1.61-0.02-2.62-0.07c-1.01-0.05-2.05-0.09-3.1-0.14
				c-1.06-0.05-2.02-0.07-2.89-0.07c-1.15,0-2.28,0.02-3.38,0.07c-1.1,0.05-2.11,0.07-3.03,0.07c-0.14,0-0.21-0.14-0.21-0.41
				s0.07-0.41,0.21-0.41c1.88,0,3.09-0.3,3.62-0.9c0.53-0.6,0.79-1.88,0.79-3.86v-15.44c0-2.02-0.26-3.32-0.79-3.9
				c-0.53-0.57-1.71-0.86-3.55-0.86c-0.14,0-0.21-0.14-0.21-0.41s0.07-0.41,0.21-0.41c0.87,0,1.86,0.02,2.96,0.07
				c1.1,0.05,2.23,0.07,3.38,0.07c1.29,0,2.54-0.02,3.76-0.07c1.22-0.05,2.31-0.07,3.27-0.07c0.14,0,0.21,0.14,0.21,0.41
				s-0.07,0.41-0.21,0.41c-2.21,0-3.62,0.32-4.24,0.97C831.89,729.58,831.58,730.89,831.58,732.86z"/>
		</g>
	</g>
	<g>
		<g>
			<path class="st13" d="M179.04,615.73c-3.99,0-6.99,1.03-9.02,3.09c-2.03,2.06-3.49,5.56-4.39,10.51c0,0.13-0.18,0.19-0.53,0.19
				c-0.36,0-0.53-0.06-0.53-0.19c0.13-0.83,0.26-2.01,0.39-3.52c0.13-1.51,0.27-3.14,0.43-4.87c0.16-1.74,0.29-3.42,0.39-5.06
				c0.1-1.64,0.14-2.97,0.14-4c0-0.32,0.18-0.48,0.53-0.48s0.53,0.16,0.53,0.48c0,0.64,0.32,1.11,0.96,1.4
				c0.64,0.29,1.37,0.48,2.17,0.58c0.8,0.1,1.5,0.14,2.07,0.14c5.53,0.19,11.99,0.29,19.39,0.29c4.57,0,8.18-0.05,10.85-0.15
				c2.67-0.1,5.26-0.14,7.77-0.14c2.19,0,3.87-0.14,5.06-0.43c1.19-0.29,1.94-0.95,2.27-1.98c0.06-0.26,0.26-0.39,0.58-0.39
				c0.32,0,0.48,0.13,0.48,0.39c-0.06,0.96-0.16,2.28-0.29,3.96c-0.13,1.67-0.23,3.41-0.29,5.21c-0.06,1.8-0.13,3.47-0.19,5.02
				c-0.06,1.54-0.1,2.73-0.1,3.57c0,0.13-0.19,0.19-0.58,0.19c-0.39,0-0.58-0.06-0.58-0.19c-0.19-5.02-1.22-8.54-3.09-10.56
				c-1.87-2.03-4.95-3.04-9.26-3.04c-2.7,0-4.73,0.13-6.08,0.39c-1.35,0.26-2.24,0.82-2.65,1.69s-0.63,2.27-0.63,4.2v44.47
				c0,1.87,0.22,3.28,0.68,4.24c0.45,0.96,1.33,1.61,2.65,1.93c1.32,0.32,3.33,0.48,6.03,0.48c0.19,0,0.29,0.19,0.29,0.58
				c0,0.39-0.1,0.58-0.29,0.58c-1.67,0-3.57-0.03-5.69-0.1c-2.12-0.06-4.44-0.1-6.95-0.1c-2.38,0-4.63,0.03-6.75,0.1
				c-2.12,0.06-4.05,0.1-5.79,0.1c-0.13,0-0.19-0.19-0.19-0.58c0-0.39,0.06-0.58,0.19-0.58c2.64,0,4.65-0.16,6.03-0.48
				c1.38-0.32,2.3-0.96,2.75-1.93c0.45-0.96,0.67-2.38,0.67-4.24v-44.66c0-1.93-0.23-3.33-0.67-4.2c-0.45-0.87-1.35-1.4-2.7-1.59
				C183.77,615.83,181.74,615.73,179.04,615.73z"/>
			<path class="st13" d="M241.26,666.47c0,1.87,0.19,3.28,0.58,4.24c0.39,0.96,1.17,1.61,2.36,1.93c1.19,0.32,2.94,0.48,5.26,0.48
				c0.19,0,0.29,0.19,0.29,0.58c0,0.39-0.1,0.58-0.29,0.58c-1.54,0-3.27-0.03-5.16-0.1c-1.9-0.06-4-0.1-6.32-0.1
				c-2.19,0-4.25,0.03-6.17,0.1c-1.93,0.06-3.67,0.1-5.21,0.1c-0.19,0-0.29-0.19-0.29-0.58c0-0.39,0.1-0.58,0.29-0.58
				c2.32,0,4.08-0.16,5.31-0.48c1.22-0.32,2.03-0.96,2.41-1.93c0.38-0.96,0.58-2.38,0.58-4.24v-44.66c0-1.86-0.19-3.26-0.58-4.2
				c-0.39-0.93-1.19-1.58-2.41-1.93c-1.22-0.35-2.99-0.53-5.31-0.53c-0.19,0-0.29-0.19-0.29-0.58c0-0.39,0.1-0.58,0.29-0.58
				c1.54,0,3.28,0.05,5.21,0.14c1.93,0.1,3.99,0.15,6.17,0.15c2.32,0,4.44-0.05,6.37-0.15c1.93-0.1,3.63-0.14,5.11-0.14
				c0.19,0,0.29,0.19,0.29,0.58c0,0.39-0.1,0.58-0.29,0.58c-2.32,0-4.07,0.19-5.26,0.58c-1.19,0.39-1.98,1.06-2.36,2.03
				c-0.39,0.96-0.58,2.38-0.58,4.24V666.47z"/>
			<path class="st13" d="M265.56,663.77l0.96-47.56l2.31,0.19l-0.96,47.36c-0.07,3.34,0.5,5.74,1.69,7.19
				c1.19,1.45,3.36,2.17,6.51,2.17c0.13,0,0.19,0.19,0.19,0.58c0,0.39-0.06,0.58-0.19,0.58c-1.42,0-2.88-0.03-4.39-0.1
				c-1.51-0.06-3.17-0.1-4.97-0.1c-1.67,0-3.25,0.03-4.73,0.1c-1.48,0.06-2.86,0.1-4.15,0.1c-0.13,0-0.19-0.19-0.19-0.58
				c0-0.39,0.06-0.58,0.19-0.58c2.7,0,4.64-0.72,5.84-2.17C264.87,669.51,265.5,667.11,265.56,663.77z M332.41,673.12
				c0.19,0,0.29,0.19,0.29,0.58c0,0.39-0.1,0.58-0.29,0.58c-1.54,0-3.3-0.03-5.26-0.1c-1.96-0.06-4-0.1-6.12-0.1
				c-2.06,0-3.97,0.03-5.74,0.1c-1.77,0.06-3.36,0.1-4.77,0.1c-0.13,0-0.19-0.19-0.19-0.58c0-0.39,0.06-0.58,0.19-0.58
				c3.21,0,5.27-0.42,6.17-1.25c0.9-0.83,1.29-2.64,1.16-5.4l-1.83-46.59l3.18-4.44l-25.08,58.17c-0.06,0.26-0.32,0.39-0.77,0.39
				c-0.45,0-0.74-0.13-0.87-0.39L268.26,622c-2.19-4.57-5.44-6.85-9.74-6.85c-0.13,0-0.19-0.19-0.19-0.58
				c0-0.39,0.06-0.58,0.19-0.58c1.03,0,2.14,0.03,3.33,0.1c1.19,0.06,2.17,0.1,2.94,0.1c1.03,0,1.98-0.03,2.85-0.1
				c0.87-0.06,1.53-0.1,1.98-0.1c0.9,0,1.61,0.29,2.12,0.87c0.51,0.58,1.29,1.96,2.31,4.15l21.99,46.3l-2.99,5.02l23.54-53.92
				c0.32-0.77,0.74-1.37,1.25-1.78c0.51-0.42,1.06-0.63,1.64-0.63c0.39,0,0.9,0.03,1.54,0.1c0.64,0.06,1.41,0.1,2.31,0.1
				c1.74,0,3.15-0.03,4.24-0.1c1.09-0.06,2.25-0.1,3.47-0.1c0.13,0,0.19,0.19,0.19,0.58c0,0.39-0.06,0.58-0.19,0.58
				c-3.09,0-5.37,0.45-6.85,1.35c-1.48,0.9-2.16,2.67-2.03,5.31l1.93,44.66c0.06,1.87,0.29,3.28,0.68,4.24
				c0.39,0.96,1.17,1.61,2.36,1.93C328.34,672.96,330.1,673.12,332.41,673.12z"/>
			<path class="st13" d="M379.2,674.28h-40.42c-0.13,0-0.19-0.19-0.19-0.58c0-0.39,0.06-0.58,0.19-0.58c2.38,0,4.15-0.16,5.31-0.48
				c1.16-0.32,1.94-0.96,2.36-1.93c0.42-0.96,0.63-2.38,0.63-4.24v-44.66c0-1.86-0.21-3.26-0.63-4.2c-0.42-0.93-1.21-1.58-2.36-1.93
				c-1.16-0.35-2.93-0.53-5.31-0.53c-0.13,0-0.19-0.19-0.19-0.58c0-0.39,0.06-0.58,0.19-0.58h38.78c0.58,0,0.87,0.29,0.87,0.87
				l0.19,11.87c0,0.19-0.18,0.31-0.53,0.34c-0.35,0.03-0.53-0.05-0.53-0.24c-0.19-3.47-1.24-6.14-3.14-8.01
				c-1.9-1.86-4.36-2.8-7.38-2.8h-5.88c-2.19,0-3.84,0.16-4.97,0.48c-1.13,0.32-1.9,0.93-2.32,1.83c-0.42,0.9-0.63,2.22-0.63,3.96
				v43.79c0,1.67,0.21,2.96,0.63,3.86c0.42,0.9,1.16,1.51,2.22,1.83c1.06,0.32,2.65,0.48,4.78,0.48h7.72c3.09,0,5.68-1.11,7.77-3.33
				c2.09-2.22,3.46-5.22,4.1-9.02c0-0.19,0.19-0.26,0.58-0.19c0.39,0.06,0.58,0.19,0.58,0.39c-0.26,1.67-0.47,3.7-0.63,6.08
				c-0.16,2.38-0.24,4.6-0.24,6.66C380.74,673.8,380.22,674.28,379.2,674.28z M373.79,651.81c0-2.83-0.69-4.85-2.07-6.08
				c-1.38-1.22-3.68-1.83-6.9-1.83h-14.47v-2.03h14.76c3.09,0,5.29-0.53,6.61-1.59c1.32-1.06,1.98-2.78,1.98-5.16
				c0-0.13,0.19-0.19,0.58-0.19c0.39,0,0.58,0.06,0.58,0.19c0,1.93-0.02,3.42-0.05,4.49c-0.03,1.06-0.05,2.17-0.05,3.33
				c0,1.48,0.03,2.93,0.1,4.34c0.06,1.42,0.1,2.93,0.1,4.53c0,0.13-0.19,0.19-0.58,0.19S373.79,651.94,373.79,651.81z"/>
			<path class="st13" d="M427.14,615.73c-3.99,0-6.99,1.03-9.02,3.09c-2.03,2.06-3.49,5.56-4.39,10.51c0,0.13-0.18,0.19-0.53,0.19
				c-0.35,0-0.53-0.06-0.53-0.19c0.13-0.83,0.26-2.01,0.39-3.52c0.13-1.51,0.27-3.14,0.43-4.87c0.16-1.74,0.29-3.42,0.39-5.06
				c0.1-1.64,0.14-2.97,0.14-4c0-0.32,0.18-0.48,0.53-0.48c0.35,0,0.53,0.16,0.53,0.48c0,0.64,0.32,1.11,0.96,1.4
				c0.64,0.29,1.37,0.48,2.17,0.58c0.8,0.1,1.5,0.14,2.07,0.14c5.53,0.19,11.99,0.29,19.39,0.29c4.57,0,8.18-0.05,10.85-0.15
				c2.67-0.1,5.26-0.14,7.76-0.14c2.19,0,3.88-0.14,5.06-0.43s1.95-0.95,2.27-1.98c0.06-0.26,0.26-0.39,0.58-0.39
				s0.48,0.13,0.48,0.39c-0.06,0.96-0.16,2.28-0.29,3.96c-0.13,1.67-0.23,3.41-0.29,5.21c-0.06,1.8-0.13,3.47-0.19,5.02
				c-0.06,1.54-0.1,2.73-0.1,3.57c0,0.13-0.19,0.19-0.58,0.19c-0.38,0-0.58-0.06-0.58-0.19c-0.19-5.02-1.22-8.54-3.09-10.56
				c-1.87-2.03-4.95-3.04-9.26-3.04c-2.7,0-4.73,0.13-6.08,0.39c-1.35,0.26-2.24,0.82-2.65,1.69c-0.42,0.87-0.63,2.27-0.63,4.2
				v44.47c0,1.87,0.22,3.28,0.67,4.24c0.45,0.96,1.33,1.61,2.65,1.93c1.32,0.32,3.33,0.48,6.03,0.48c0.19,0,0.29,0.19,0.29,0.58
				c0,0.39-0.1,0.58-0.29,0.58c-1.67,0-3.57-0.03-5.69-0.1c-2.12-0.06-4.44-0.1-6.95-0.1c-2.38,0-4.63,0.03-6.75,0.1
				c-2.12,0.06-4.05,0.1-5.79,0.1c-0.13,0-0.19-0.19-0.19-0.58c0-0.39,0.06-0.58,0.19-0.58c2.63,0,4.64-0.16,6.03-0.48
				c1.38-0.32,2.3-0.96,2.75-1.93c0.45-0.96,0.68-2.38,0.68-4.24v-44.66c0-1.93-0.23-3.33-0.68-4.2c-0.45-0.87-1.35-1.4-2.7-1.59
				C431.86,615.83,429.84,615.73,427.14,615.73z"/>
			<path class="st13" d="M505.46,675.44c-4.63,0-8.83-0.82-12.59-2.46c-3.76-1.64-6.98-3.91-9.65-6.8
				c-2.67-2.89-4.73-6.22-6.17-9.98s-2.17-7.77-2.17-12.01c0-5.21,1.01-9.77,3.04-13.7c2.03-3.92,4.71-7.19,8.05-9.79
				s7.01-4.55,11-5.84c3.99-1.29,7.94-1.93,11.86-1.93c4.76,0,9.02,0.85,12.78,2.56c3.76,1.7,6.96,4,9.6,6.9
				c2.64,2.89,4.64,6.17,6.03,9.84c1.38,3.67,2.07,7.43,2.07,11.29c0,4.5-0.9,8.68-2.7,12.54c-1.8,3.86-4.26,7.23-7.38,10.13
				c-3.12,2.89-6.72,5.16-10.8,6.8C514.35,674.62,510.03,675.44,505.46,675.44z M508.84,673.41c4.37,0,8.3-1.04,11.77-3.14
				c3.47-2.09,6.24-5.16,8.3-9.21c2.06-4.05,3.09-9,3.09-14.86c0-6.04-1.11-11.4-3.33-16.06c-2.22-4.66-5.37-8.33-9.45-11
				c-4.08-2.67-8.89-4-14.42-4c-7.14,0-12.68,2.3-16.64,6.9c-3.96,4.6-5.93,10.85-5.93,18.76c0,4.57,0.63,8.83,1.88,12.78
				s3.07,7.43,5.45,10.42c2.38,2.99,5.21,5.31,8.49,6.95C501.31,672.59,504.92,673.41,508.84,673.41z"/>
			<path class="st13" d="M584.75,615.73c-3.99,0-6.99,1.03-9.02,3.09c-2.03,2.06-3.49,5.56-4.39,10.51c0,0.13-0.18,0.19-0.53,0.19
				c-0.35,0-0.53-0.06-0.53-0.19c0.13-0.83,0.26-2.01,0.38-3.52c0.13-1.51,0.27-3.14,0.43-4.87c0.16-1.74,0.29-3.42,0.39-5.06
				c0.1-1.64,0.14-2.97,0.14-4c0-0.32,0.18-0.48,0.53-0.48c0.35,0,0.53,0.16,0.53,0.48c0,0.64,0.32,1.11,0.96,1.4
				c0.64,0.29,1.37,0.48,2.17,0.58c0.8,0.1,1.49,0.14,2.07,0.14c5.53,0.19,11.99,0.29,19.39,0.29c4.56,0,8.18-0.05,10.85-0.15
				c2.67-0.1,5.26-0.14,7.77-0.14c2.19,0,3.87-0.14,5.06-0.43c1.19-0.29,1.94-0.95,2.27-1.98c0.06-0.26,0.26-0.39,0.58-0.39
				c0.32,0,0.48,0.13,0.48,0.39c-0.07,0.96-0.16,2.28-0.29,3.96c-0.13,1.67-0.23,3.41-0.29,5.21c-0.06,1.8-0.13,3.47-0.19,5.02
				c-0.06,1.54-0.1,2.73-0.1,3.57c0,0.13-0.19,0.19-0.58,0.19c-0.39,0-0.58-0.06-0.58-0.19c-0.19-5.02-1.22-8.54-3.09-10.56
				c-1.87-2.03-4.95-3.04-9.26-3.04c-2.7,0-4.73,0.13-6.08,0.39c-1.35,0.26-2.23,0.82-2.65,1.69c-0.42,0.87-0.63,2.27-0.63,4.2
				v44.47c0,1.87,0.22,3.28,0.68,4.24c0.45,0.96,1.33,1.61,2.65,1.93c1.32,0.32,3.33,0.48,6.03,0.48c0.19,0,0.29,0.19,0.29,0.58
				c0,0.39-0.1,0.58-0.29,0.58c-1.67,0-3.57-0.03-5.69-0.1c-2.12-0.06-4.44-0.1-6.95-0.1c-2.38,0-4.63,0.03-6.75,0.1
				c-2.12,0.06-4.05,0.1-5.79,0.1c-0.13,0-0.19-0.19-0.19-0.58c0-0.39,0.06-0.58,0.19-0.58c2.64,0,4.65-0.16,6.03-0.48
				c1.38-0.32,2.3-0.96,2.75-1.93c0.45-0.96,0.67-2.38,0.67-4.24v-44.66c0-1.93-0.23-3.33-0.67-4.2c-0.45-0.87-1.35-1.4-2.7-1.59
				C589.48,615.83,587.46,615.73,584.75,615.73z"/>
			<path class="st13" d="M654.98,613.7c5.27,0,9.31,1.08,12.11,3.23c2.8,2.16,4.2,5.1,4.2,8.83c0,2.44-0.55,4.74-1.64,6.9
				c-1.09,2.16-2.57,4.05-4.44,5.69c-1.87,1.64-4.04,2.94-6.51,3.91c-2.48,0.96-5.06,1.45-7.76,1.45c-0.64,0-1.37-0.02-2.17-0.05
				c-0.8-0.03-1.53-0.08-2.17-0.15v22.96c0,1.87,0.18,3.28,0.53,4.24c0.35,0.96,1.12,1.61,2.32,1.93c1.19,0.32,2.97,0.48,5.35,0.48
				c0.19,0,0.29,0.19,0.29,0.58c0,0.39-0.1,0.58-0.29,0.58c-1.54,0-3.26-0.03-5.16-0.1c-1.9-0.06-3.97-0.1-6.22-0.1
				c-2.12,0-4.16,0.03-6.12,0.1c-1.96,0.06-3.75,0.1-5.35,0.1c-0.13,0-0.19-0.19-0.19-0.58c0-0.39,0.06-0.58,0.19-0.58
				c2.38,0,4.16-0.16,5.35-0.48c1.19-0.32,2.01-0.96,2.46-1.93c0.45-0.96,0.68-2.38,0.68-4.24v-44.66c0-1.86-0.21-3.26-0.63-4.2
				c-0.42-0.93-1.21-1.58-2.36-1.93c-1.16-0.35-2.93-0.53-5.31-0.53c-0.19,0-0.29-0.19-0.29-0.58c0-0.39,0.1-0.58,0.29-0.58
				c1.54,0,3.28,0.05,5.21,0.14c1.93,0.1,3.96,0.15,6.08,0.15c1.67,0,3.63-0.1,5.88-0.29C651.54,613.8,653.44,613.7,654.98,613.7z
				 M664.72,629.14c0-3.54-0.53-6.32-1.59-8.34c-1.06-2.03-2.46-3.47-4.2-4.34s-3.73-1.3-5.98-1.3c-1.54,0-2.8,0.13-3.76,0.39
				c-0.96,0.26-1.64,0.87-2.03,1.83c-0.38,0.96-0.58,2.51-0.58,4.63v19.1c0.9,0.13,1.86,0.23,2.89,0.29c1.03,0.06,1.96,0.1,2.8,0.1
				c4.44,0,7.62-0.95,9.55-2.85C663.76,636.74,664.72,633.57,664.72,629.14z M681.22,674.28c-1.09,0-2.85-1.29-5.26-3.86
				c-2.41-2.57-5.34-6.25-8.78-11.04c-3.44-4.79-7.28-10.5-11.53-17.12l5.4-1.74c5.47,8.1,10.11,14.52,13.94,19.24
				c3.83,4.73,7.2,8.14,10.13,10.23c2.93,2.09,5.74,3.13,8.44,3.13c0.19,0,0.29,0.19,0.29,0.58c0,0.39-0.1,0.58-0.29,0.58
				c-3.22,0-5.84,0-7.86,0S682.18,674.28,681.22,674.28z"/>
			<path class="st13" d="M760.12,673.12c0.26,0,0.39,0.19,0.39,0.58c0,0.39-0.13,0.58-0.39,0.58c-1.87,0-3.76-0.06-5.69-0.19
				c-1.93-0.13-3.79-0.19-5.59-0.19c-1.99,0-3.73,0.06-5.21,0.19c-1.48,0.13-3.12,0.19-4.92,0.19c-0.26,0-0.39-0.19-0.39-0.58
				c0-0.39,0.13-0.58,0.39-0.58c3.41,0,5.53-0.5,6.37-1.5c0.83-1,0.61-2.88-0.67-5.64l-21.42-45.24l2.41-2.99l-18.71,44.28
				c-1.61,3.92-1.71,6.75-0.29,8.49c1.41,1.74,4.21,2.6,8.39,2.6c0.32,0,0.48,0.19,0.48,0.58c0,0.39-0.16,0.58-0.48,0.58
				c-1.93,0-3.7-0.06-5.3-0.19c-1.61-0.13-3.63-0.19-6.08-0.19c-2.32,0-4.17,0.06-5.55,0.19c-1.38,0.13-3.07,0.19-5.06,0.19
				c-0.26,0-0.39-0.19-0.39-0.58c0-0.39,0.13-0.58,0.39-0.58c1.74,0,3.25-0.34,4.53-1.01c1.29-0.68,2.49-1.86,3.62-3.57
				c1.12-1.7,2.36-4.16,3.71-7.38l20.35-48.04c0.13-0.19,0.35-0.29,0.67-0.29s0.51,0.1,0.58,0.29l22.76,47.94
				c1.48,3.15,2.8,5.61,3.96,7.38c1.16,1.77,2.3,2.99,3.42,3.67C757.53,672.79,758.77,673.12,760.12,673.12z M713.24,642.35
				l1.45-2.03h19.87l0.68,2.03H713.24z"/>
			<path class="st13" d="M824.94,613.99c0.19,0,0.29,0.19,0.29,0.58c0,0.39-0.1,0.58-0.29,0.58c-2.06,0-3.91,0.55-5.55,1.64
				c-1.64,1.09-3.04,3.09-4.2,5.98l-20.55,51.41c-0.07,0.26-0.4,0.39-1.01,0.39c-0.61,0-0.98-0.13-1.11-0.39L768.51,622
				c-1.09-2.44-2.24-4.2-3.42-5.26c-1.19-1.06-2.78-1.59-4.77-1.59c-0.19,0-0.29-0.19-0.29-0.58c0-0.39,0.1-0.58,0.29-0.58
				c0.9,0,1.77,0.03,2.6,0.1c0.84,0.06,1.7,0.11,2.61,0.14c0.9,0.03,1.83,0.05,2.8,0.05c1.93,0,3.63-0.02,5.11-0.05
				c1.48-0.03,2.8-0.08,3.96-0.14c1.16-0.06,2.22-0.1,3.18-0.1c0.19,0,0.29,0.19,0.29,0.58c0,0.39-0.1,0.58-0.29,0.58
				c-2.51,0-4.26,0.48-5.26,1.45c-1,0.96-0.95,2.64,0.14,5.02l20.84,45.63l-2.99,4.44l19.68-49.49c0.96-2.38,0.96-4.15,0-5.31
				c-0.96-1.16-3.22-1.74-6.75-1.74c-0.19,0-0.29-0.19-0.29-0.58c0-0.39,0.1-0.58,0.29-0.58c1.61,0,3.12,0.05,4.53,0.14
				c1.41,0.1,3.28,0.15,5.59,0.15c1.86,0,3.36-0.05,4.49-0.15C821.97,614.04,823.34,613.99,824.94,613.99z"/>
			<path class="st13" d="M869.22,674.28H828.8c-0.13,0-0.19-0.19-0.19-0.58c0-0.39,0.06-0.58,0.19-0.58c2.38,0,4.15-0.16,5.31-0.48
				c1.16-0.32,1.94-0.96,2.36-1.93c0.42-0.96,0.63-2.38,0.63-4.24v-44.66c0-1.86-0.21-3.26-0.63-4.2c-0.42-0.93-1.21-1.58-2.36-1.93
				c-1.16-0.35-2.93-0.53-5.31-0.53c-0.13,0-0.19-0.19-0.19-0.58c0-0.39,0.06-0.58,0.19-0.58h38.78c0.58,0,0.87,0.29,0.87,0.87
				l0.19,11.87c0,0.19-0.18,0.31-0.53,0.34c-0.35,0.03-0.53-0.05-0.53-0.24c-0.19-3.47-1.24-6.14-3.13-8.01
				c-1.9-1.86-4.36-2.8-7.38-2.8h-5.88c-2.19,0-3.84,0.16-4.97,0.48c-1.12,0.32-1.9,0.93-2.31,1.83c-0.42,0.9-0.63,2.22-0.63,3.96
				v43.79c0,1.67,0.21,2.96,0.63,3.86c0.42,0.9,1.16,1.51,2.22,1.83c1.06,0.32,2.65,0.48,4.77,0.48h7.72c3.09,0,5.67-1.11,7.76-3.33
				c2.09-2.22,3.46-5.22,4.1-9.02c0-0.19,0.19-0.26,0.58-0.19c0.39,0.06,0.58,0.19,0.58,0.39c-0.26,1.67-0.47,3.7-0.63,6.08
				c-0.16,2.38-0.24,4.6-0.24,6.66C870.76,673.8,870.25,674.28,869.22,674.28z M863.82,651.81c0-2.83-0.69-4.85-2.07-6.08
				c-1.38-1.22-3.68-1.83-6.9-1.83h-14.47v-2.03h14.76c3.09,0,5.29-0.53,6.61-1.59c1.32-1.06,1.98-2.78,1.98-5.16
				c0-0.13,0.19-0.19,0.58-0.19c0.38,0,0.58,0.06,0.58,0.19c0,1.93-0.02,3.42-0.05,4.49c-0.03,1.06-0.05,2.17-0.05,3.33
				c0,1.48,0.03,2.93,0.1,4.34c0.06,1.42,0.1,2.93,0.1,4.53c0,0.13-0.19,0.19-0.58,0.19C864.01,652,863.82,651.94,863.82,651.81z"/>
			<path class="st13" d="M894.3,621.9v44.18c0,1.74,0.19,3.06,0.58,3.96c0.39,0.9,1.12,1.5,2.22,1.78c1.09,0.29,2.73,0.43,4.92,0.43
				h10.51c3.73,0,6.69-1.17,8.87-3.52c2.19-2.35,3.6-5.42,4.25-9.21c0-0.19,0.18-0.27,0.53-0.24c0.35,0.03,0.53,0.14,0.53,0.34
				c-0.19,1.74-0.39,3.84-0.58,6.32c-0.19,2.48-0.29,4.77-0.29,6.9c0,0.96-0.48,1.45-1.45,1.45h-44.57c-0.13,0-0.19-0.19-0.19-0.58
				c0-0.39,0.06-0.58,0.19-0.58c2.32,0,4.07-0.16,5.26-0.48c1.19-0.32,1.98-0.96,2.36-1.93c0.39-0.96,0.58-2.38,0.58-4.24v-44.66
				c0-1.86-0.19-3.26-0.58-4.2c-0.38-0.93-1.17-1.58-2.36-1.93c-1.19-0.35-2.94-0.53-5.26-0.53c-0.13,0-0.19-0.19-0.19-0.58
				c0-0.39,0.06-0.58,0.19-0.58c1.54,0,3.28,0.05,5.21,0.14c1.93,0.1,3.95,0.15,6.08,0.15c2.25,0,4.34-0.05,6.27-0.15
				c1.93-0.1,3.63-0.14,5.11-0.14c0.19,0,0.29,0.19,0.29,0.58c0,0.39-0.1,0.58-0.29,0.58c-2.31,0-4.07,0.18-5.26,0.53
				c-1.19,0.35-1.98,1.01-2.36,1.98C894.49,618.62,894.3,620.04,894.3,621.9z"/>
		</g>
	</g>
	<g>
		<defs>
			<circle id="XMLID_00000154417355165656467710000014845206004621085323_" cx="541.25" cy="429.39" r="122.65"/>
		</defs>
		<clipPath id="XMLID_00000073687500217622575400000015900107084914363533_">
			<use xlink:href="#XMLID_00000154417355165656467710000014845206004621085323_"  style="overflow:visible;"/>
		</clipPath>
		
			<path style="clip-path:url(#XMLID_00000073687500217622575400000015900107084914363533_);fill:none;stroke:#F4E1B0;stroke-width:5;stroke-linecap:round;stroke-linejoin:round;stroke-miterlimit:10;" d="
			M418.77,454.58l18.58,7.7c20.47,8.48,43.23,9.72,64.5,3.51l9.55-2.79c19.47-5.69,40.22-5.15,59.37,1.55l0,0
			c20.12,7.04,42,7.27,62.26,0.65l32.52-10.61"/>
		
			<path style="clip-path:url(#XMLID_00000073687500217622575400000015900107084914363533_);fill:none;stroke:#F4E1B0;stroke-width:5;stroke-linecap:round;stroke-linejoin:round;stroke-miterlimit:10;" d="
			M418.77,434.37l18.58,7.7c20.47,8.48,43.23,9.72,64.5,3.51l9.55-2.79c19.47-5.69,40.22-5.15,59.37,1.55l0,0
			c20.12,7.04,42,7.27,62.26,0.65l32.52-10.61"/>
		
			<path style="clip-path:url(#XMLID_00000073687500217622575400000015900107084914363533_);fill:none;stroke:#F4E1B0;stroke-width:5;stroke-linecap:round;stroke-linejoin:round;stroke-miterlimit:10;" d="
			M418.77,475.39l18.58,7.7c20.47,8.48,43.23,9.72,64.5,3.51l9.55-2.79c19.47-5.69,40.22-5.15,59.37,1.55l0,0
			c20.12,7.04,42,7.27,62.26,0.65l32.52-10.61"/>
		
			<path style="clip-path:url(#XMLID_00000073687500217622575400000015900107084914363533_);fill:none;stroke:#F4E1B0;stroke-width:5;stroke-linecap:round;stroke-linejoin:round;stroke-miterlimit:10;" d="
			M418.77,494.88l18.58,7.7c20.47,8.48,43.23,9.72,64.5,3.51l9.55-2.79c19.47-5.69,40.22-5.15,59.37,1.55l0,0
			c20.12,7.04,42,7.27,62.26,0.65l32.52-10.61"/>
		
			<path style="clip-path:url(#XMLID_00000073687500217622575400000015900107084914363533_);fill:none;stroke:#F4E1B0;stroke-width:5;stroke-linecap:round;stroke-linejoin:round;stroke-miterlimit:10;" d="
			M418.77,514.7l18.58,7.7c20.47,8.48,43.23,9.72,64.5,3.51l9.55-2.79c19.47-5.69,40.22-5.15,59.37,1.55h0
			c20.12,7.04,42,7.27,62.26,0.65l32.52-10.61"/>
		
			<path style="clip-path:url(#XMLID_00000073687500217622575400000015900107084914363533_);fill:none;stroke:#F4E1B0;stroke-width:5;stroke-linecap:round;stroke-linejoin:round;stroke-miterlimit:10;" d="
			M418.77,533.54l18.58,7.7c20.47,8.48,43.23,9.72,64.5,3.51l9.55-2.79c19.47-5.69,40.22-5.15,59.37,1.55h0
			c20.12,7.04,42,7.27,62.26,0.65l32.52-10.61"/>
		<g style="clip-path:url(#XMLID_00000073687500217622575400000015900107084914363533_);">
			<g id="_x3C_Радиальное_повторение_x3E__00000078734967208872292450000007793677147319707052_">
				<line class="st41" x1="485.2" y1="436.53" x2="396.32" y2="405.21"/>
			</g>
			<g id="_x3C_Радиальное_повторение_x3E__00000067223830687872496190000009781569768852007851_">
				<line class="st41" x1="491.77" y1="423.39" x2="413.41" y2="371.05"/>
			</g>
			<g id="_x3C_Радиальное_повторение_x3E__00000149350228456614718010000001618100263900423555_">
				<line class="st41" x1="501.4" y1="412.28" x2="438.42" y2="342.18"/>
			</g>
			<g id="_x3C_Радиальное_повторение_x3E__00000101803927757559435390000005863323208386790813_">
				<line class="st41" x1="513.47" y1="403.89" x2="469.79" y2="320.39"/>
			</g>
			<g id="_x3C_Радиальное_повторение_x3E__00000003091829051091810200000009938008031131630490_">
				<line class="st41" x1="527.24" y1="398.76" x2="505.58" y2="307.05"/>
			</g>
			<g id="_x3C_Радиальное_повторение_x3E__00000021805135016247464980000007894574020805503642_">
				<line class="st41" x1="541.86" y1="397.18" x2="543.56" y2="302.96"/>
			</g>
			<g id="_x3C_Радиальное_повторение_x3E__00000123414435291491367440000004399744451570578104_">
				<line class="st41" x1="556.41" y1="399.28" x2="581.36" y2="308.41"/>
			</g>
			<g id="_x3C_Радиальное_повторение_x3E__00000107585261911872264960000002706225972270711686_">
				<line class="st41" x1="569.99" y1="404.91" x2="616.65" y2="323.04"/>
			</g>
			<g id="_x3C_Радиальное_повторение_x3E__00000125563901086548899690000002879675086981164206_">
				<line class="st41" x1="581.75" y1="413.72" x2="647.22" y2="345.94"/>
			</g>
			<g id="_x3C_Радиальное_повторение_x3E__00000080185305398040728240000018156106524377611696_">
				<line class="st41" x1="590.97" y1="425.17" x2="671.17" y2="375.69"/>
			</g>
			<g id="_x3C_Радиальное_повторение_x3E__00000064330056861213767460000005577184439747942063_">
				<line class="st41" x1="597.07" y1="438.55" x2="687.02" y2="410.45"/>
			</g>
		</g>
	</g>
</g>
</svg>
